<?xml version="1.0" encoding="utf-8"?>
<!-- Generator: Adobe Illustrator 19.0.0, SVG Export Plug-In . SVG Version: 6.00 Build 0)  -->
<svg version="1.1" id="Layer_1" xmlns="http://www.w3.org/2000/svg" xmlns:xlink="http://www.w3.org/1999/xlink" x="0px" y="0px"
	 viewBox="97 690.3 519.9 67.7" style="enable-background:new 97 690.3 519.9 67.7;" xml:space="preserve">
<style type="text/css">
	.st0{fill:url(#SVGID_1_);}
	.st1{fill:url(#SVGID_2_);}
	.st2{fill:#2196F3;}
	.st3{fill:url(#SVGID_3_);}
	.st4{fill:#666666;}
</style>
<g id="PathID_1" transform="matrix(1.37092, 0, 0, 1.60604, 138.3, 225.6)">
	
		<linearGradient id="SVGID_1_" gradientUnits="userSpaceOnUse" x1="-1481.1604" y1="-3026.4102" x2="157.2376" y2="-3026.4102" gradientTransform="matrix(6.471230e-002 0 0 -0.104 137.3246 11.9514)">
		<stop  offset="0" style="stop-color:#001C21"/>
		<stop  offset="4.808107e-003" style="stop-color:#012129"/>
		<stop  offset="3.601006e-002" style="stop-color:#093C58"/>
		<stop  offset="6.911442e-002" style="stop-color:#0F5482"/>
		<stop  offset="0.1036" style="stop-color:#1568A5"/>
		<stop  offset="0.1399" style="stop-color:#1979C1"/>
		<stop  offset="0.1786" style="stop-color:#1D86D7"/>
		<stop  offset="0.2208" style="stop-color:#1F8FE7"/>
		<stop  offset="0.2691" style="stop-color:#2194F0"/>
		<stop  offset="0.3373" style="stop-color:#2196F3"/>
		<stop  offset="1" style="stop-color:#2196F3"/>
	</linearGradient>
	<path class="st0" d="M41.5,322.9h41.1v7.8H41.5V322.9"/>
</g>
<g id="PathID_2" transform="matrix(1.37092, 0, 0, 1.60604, 138.3, 225.6)">
</g>
<g id="PathID_3" transform="matrix(0.598712, 1.04682e-007, -1.04682e-007, 0.598712, 42.6, 198.8)">
	
		<linearGradient id="SVGID_2_" gradientUnits="userSpaceOnUse" x1="735.5538" y1="1783.5182" x2="685.1957" y2="1783.5182" gradientTransform="matrix(0.3584 0 0 0.3584 -88.6578 245.5365)">
		<stop  offset="0" style="stop-color:#001C21"/>
		<stop  offset="0.2346" style="stop-color:#0A4161"/>
		<stop  offset="0.5416" style="stop-color:#166FAF"/>
		<stop  offset="0.7606" style="stop-color:#1E8BE0"/>
		<stop  offset="0.8686" style="stop-color:#2196F3"/>
		<stop  offset="1" style="stop-color:#2196F3"/>
	</linearGradient>
	<path class="st1" d="M175,866h-60.8v60.9H90.9v-84.2H175V866"/>
</g>
<g id="PathID_4" transform="matrix(0.598712, 1.04682e-007, -1.04682e-007, 0.598712, 42.6, 198.8)">
</g>
<g id="PathID_5" transform="matrix(1.55339, 0, 0, 3.30851, 157.45, 197.75)">
	<path class="st2" d="M48.8,154.9h11.7v10.5H48.8V154.9"/>
</g>
<g id="PathID_6" transform="matrix(1.55339, 0, 0, 3.30851, 157.45, 197.75)">
</g>
<g id="PathID_7" transform="matrix(1.37092, 0, 0, 1.60604, 138.3, 174.55)">
	
		<linearGradient id="SVGID_3_" gradientUnits="userSpaceOnUse" x1="-1481.1604" y1="-3057.8381" x2="157.2376" y2="-3057.8381" gradientTransform="matrix(6.471230e-002 0 0 -0.104 137.3246 14.4815)">
		<stop  offset="0" style="stop-color:#001C21"/>
		<stop  offset="4.808107e-003" style="stop-color:#012129"/>
		<stop  offset="3.601006e-002" style="stop-color:#093C58"/>
		<stop  offset="6.911442e-002" style="stop-color:#0F5482"/>
		<stop  offset="0.1036" style="stop-color:#1568A5"/>
		<stop  offset="0.1399" style="stop-color:#1979C1"/>
		<stop  offset="0.1786" style="stop-color:#1D86D7"/>
		<stop  offset="0.2208" style="stop-color:#1F8FE7"/>
		<stop  offset="0.2691" style="stop-color:#2194F0"/>
		<stop  offset="0.3373" style="stop-color:#2196F3"/>
		<stop  offset="1" style="stop-color:#2196F3"/>
	</linearGradient>
	<path class="st3" d="M41.5,328.7h41.1v7.8H41.5V328.7"/>
</g>
<g id="PathID_8" transform="matrix(1.37092, 0, 0, 1.60604, 138.3, 174.55)">
</g>
<g id="PathID_9" transform="matrix(0.647016, -1.13128e-007, -1.13128e-007, 0.647016, 88.75, 185.25)">
	<path class="st2" d="M182.8,803.8h-74.5v60.9H79.8v-84.2h103V803.8"/>
</g>
<g id="PathID_10" transform="matrix(0.647016, -1.13128e-007, -1.13128e-007, 0.647016, 88.75, 185.25)">
</g>
<g id="PathID_11" transform="matrix(-0.171811, 1.50202e-008, 0, 0.405979, 89.6, 195.95)">
	<path class="st2" d="M-443.3,1264.1v84.2h-103v-84.2H-443.3"/>
</g>
<g id="PathID_12" transform="matrix(-0.171811, 1.50202e-008, 0, 0.405979, 89.6, 195.95)">
</g>
<g id="PathID_13" transform="matrix(1.73893, 0, 0, 1.73893, 174.35, 233.75)">
	<path class="st4" d="M49.4,270.9h20.3v5.6H63v24.4h-7.1v-24.4h-6.5L49.4,270.9"/>
</g>
<g id="PathID_14" transform="matrix(1.73893, 0, 0, 1.73893, 174.35, 233.75)">
</g>
<g id="PathID_15" transform="matrix(1.73893, 0, 0, 1.73893, 211.65, 233.75)">
	<path class="st4" d="M52.5,270.9h7V301h-7V270.9"/>
</g>
<g id="PathID_16" transform="matrix(1.73893, 0, 0, 1.73893, 211.65, 233.75)">
</g>
<g id="PathID_17" transform="matrix(1.73893, 0, 0, 1.73893, 236.5, 233.75)">
	<path class="st4" d="M56.7,271.2h6.7l8.5,21l8.7-21h6.8l6.2,30.1h-6.8l-3.9-19l-7.8,19h-6.2l-7.8-19l-4.1,19h-6.8L56.7,271.2"/>
</g>
<g id="PathID_18" transform="matrix(1.73893, 0, 0, 1.73893, 236.5, 233.75)">
</g>
<g id="PathID_19" transform="matrix(1.73893, 0, 0, 1.73893, 316.6, 233.75)">
	<path class="st4" d="M53.1,270.9h20.1v5.6H60.1v5.4h13.1v5.6H60.1v7.9h13.1v5.6H53.1V270.9"/>
</g>
<g id="PathID_20" transform="matrix(1.73893, 0, 0, 1.73893, 316.6, 233.75)">
</g>
<g id="PathID_21" transform="matrix(1.73893, 0, 0, 1.73893, 362.8, 233.75)">
	<path class="st4" d="M72.4,275.4l-5.2,3.8c-1.8-2-3.7-3.1-5.5-3.1c-0.9,0-1.7,0.2-2.3,0.7c-0.6,0.4-0.9,0.9-0.9,1.4s0.2,1,0.6,1.5
		c0.6,0.6,2.3,1.9,5.1,3.9c2.7,1.8,4.3,2.9,4.9,3.4c1.4,1.1,2.4,2.3,3,3.4s0.9,2.2,0.9,3.5c0,2.5-1.1,4.5-3.2,6.1s-4.8,2.4-8.2,2.4
		c-2.6,0-4.9-0.5-6.9-1.6c-1.9-1.1-3.6-2.7-4.9-5l5.8-2.9c1.8,2.7,3.8,4,6.1,4c1.2,0,2.2-0.2,3.1-0.8c0.8-0.6,1.3-1.2,1.3-2
		c0-0.7-0.3-1.4-1-2c-0.6-0.7-1.9-1.7-4-3.1c-4-2.7-6.6-4.7-7.8-6.2c-1.2-1.5-1.8-2.9-1.8-4.3c0-2,1-3.8,2.9-5.4
		c1.9-1.5,4.3-2.3,7.2-2.3c1.8,0,3.6,0.3,5.2,1.1C68.6,272.2,70.4,273.5,72.4,275.4"/>
</g>
<g id="PathID_22" transform="matrix(1.73893, 0, 0, 1.73893, 362.8, 233.75)">
</g>
<g id="PathID_23" transform="matrix(0.171811, 0, 0, 0.653457, 113.2, 201.15)">
	<path class="st2" d="M546.3,767.9v84.2h-103v-84.2L546.3,767.9"/>
</g>
<g id="PathID_24" transform="matrix(0.171811, 0, 0, 0.653457, 113.2, 201.15)">
</g>
<g id="PathID_25" transform="matrix(-0.171811, -1.50202e-008, 0, 0.293097, 42.65, 205.65)">
	<path class="st2" d="M-431.6,1761.1v84.2h-103v-84.2H-431.6"/>
</g>
<g id="PathID_26" transform="matrix(-0.171811, -1.50202e-008, 0, 0.293097, 42.65, 205.65)">
</g>
<g id="PathID_27" transform="matrix(1.73893, 0, 0, 1.73893, 405.05, 233.75)">
	<path class="st2" d="M56,295.1c1.1,0,2,0.3,2.8,0.9c0.8,0.7,1.2,1.4,1.2,2.3s-0.4,1.6-1.2,2.3c-0.8,0.7-1.7,1-2.8,1
		c-1.1,0-2-0.3-2.8-1c-0.8-0.7-1.2-1.4-1.2-2.3s0.4-1.6,1.2-2.3C54,295.4,54.9,295.1,56,295.1"/>
</g>
<g id="PathID_28" transform="matrix(1.73893, 0, 0, 1.73893, 405.05, 233.75)">
</g>
<g id="PathID_29" transform="matrix(1.73893, 0, 0, 1.73893, 429.9, 233.75)">
	<path class="st2" d="M53.5,270.9h7.4c4,0,6.9,0.3,8.7,0.9s3.1,1.6,4.2,2.9c1.1,1.4,1.6,3,1.6,4.9c0,2-0.6,3.7-1.8,5
		c-1.2,1.3-2.9,2.4-5.3,3l8.7,13.3h-7.6l-8.3-12.6h-0.7V301h-7L53.5,270.9 M60.5,282.6h2.2c2.2,0,3.8-0.2,4.6-0.7
		c0.9-0.5,1.3-1.3,1.3-2.4c0-0.7-0.2-1.2-0.7-1.7c-0.4-0.5-1-0.8-1.7-1.1c-0.7-0.2-2-0.3-3.8-0.3h-1.9V282.6"/>
</g>
<g id="PathID_30" transform="matrix(1.73893, 0, 0, 1.73893, 429.9, 233.75)">
</g>
<g id="PathID_31" transform="matrix(1.73893, 0, 0, 1.73893, 481.45, 233.75)">
	<path class="st2" d="M52.8,270.9h7.1v19.5c0,1.6,0.2,2.9,0.5,3.6c0.4,0.7,0.9,1.2,1.8,1.6c0.8,0.4,1.8,0.7,3,0.7s2.3-0.2,3.2-0.7
		c0.9-0.5,1.5-1.1,1.8-1.8c0.4-0.7,0.5-2.1,0.6-4.1v-18.8h7.1v18c0,3-0.2,5.2-0.7,6.3c-0.4,1.1-1.2,2.3-2.4,3.4
		c-1.2,1.1-2.5,1.9-4.1,2.5c-1.5,0.5-3.3,0.7-5.3,0.7c-2.7,0-5-0.5-7-1.5s-3.4-2.3-4.3-3.8c-0.8-1.6-1.3-4.1-1.3-7.6L52.8,270.9"/>
</g>
<g id="PathID_32" transform="matrix(1.73893, 0, 0, 1.73893, 481.45, 233.75)">
</g>
</svg>
